<?xml version="1.0" encoding="utf-8"?>
<!-- Generator: Adobe Illustrator 16.0.0, SVG Export Plug-In . SVG Version: 6.00 Build 0)  -->
<!DOCTYPE svg PUBLIC "-//W3C//DTD SVG 1.1//EN" "http://www.w3.org/Graphics/SVG/1.1/DTD/svg11.dtd">
<svg version="1.1" id="Layer_1" xmlns="http://www.w3.org/2000/svg" xmlns:xlink="http://www.w3.org/1999/xlink" x="0px" y="0px"
	 width="54.406px" height="9px" viewBox="0 0 54.406 9" enable-background="new 0 0 54.406 9" xml:space="preserve">
<path fill="#808080" d="M52.954,4.036c-0.272-0.107-0.62-0.193-1.045-0.256l-1.062-0.16c-0.206-0.029-0.405-0.085-0.591-0.164
	c-0.191-0.078-0.341-0.167-0.455-0.264c-0.232-0.208-0.353-0.497-0.353-0.866c0-0.166,0.033-0.317,0.079-0.462L49.514,0
	c-0.46,0.227-0.813,0.542-1.06,0.948c-0.25,0.413-0.377,0.89-0.377,1.43c0,0.761,0.226,1.354,0.676,1.776
	c0.423,0.391,1.011,0.641,1.769,0.747l1.099,0.153c0.272,0.039,0.482,0.086,0.631,0.143c0.146,0.057,0.274,0.141,0.387,0.251
	c0.246,0.221,0.369,0.543,0.369,0.963c0,0.45-0.169,0.8-0.51,1.051c-0.128,0.094-0.279,0.164-0.441,0.224h-8.076V0.938l-1.424,0.73
	v7.287c0,0,9.362,0.103,9.741,0h0.127V8.92c0.394-0.121,0.741-0.299,1.04-0.534c0.306-0.241,0.537-0.533,0.698-0.876
	c0.162-0.341,0.244-0.721,0.244-1.134c0-0.831-0.255-1.466-0.761-1.91C53.454,4.288,53.224,4.146,52.954,4.036z"/>
<g>
	<path fill="#808080" d="M0,2.124h1.055v5.053h2.471v0.89H0V2.124z"/>
	<path fill="#808080" d="M5.924,2.124h1.054v5.942H5.924V2.124z"/>
	<path fill="#808080" d="M9.061,2.124h1.116l0.837,2.99c0.097,0.339,0.183,0.66,0.258,0.962c0.076,0.304,0.166,0.628,0.269,0.974
		h0.037c0.103-0.346,0.191-0.67,0.268-0.974c0.076-0.302,0.159-0.623,0.25-0.962l0.827-2.99h1.081l-1.844,5.942h-1.245L9.061,2.124z
		"/>
	<path fill="#808080" d="M16.082,2.124h3.581v0.891h-2.526v1.518h2.135v0.89h-2.135v1.754h2.617v0.89h-3.672V2.124z"/>
	<path fill="#808080" d="M25.559,2.124h1.899c0.31,0,0.592,0.026,0.849,0.078c0.258,0.052,0.481,0.133,0.673,0.245
		c0.19,0.112,0.339,0.262,0.445,0.45c0.105,0.188,0.159,0.417,0.159,0.69c0,0.285-0.082,0.548-0.249,0.79
		c-0.167,0.243-0.424,0.409-0.768,0.5v0.037c0.429,0.073,0.759,0.227,0.984,0.459c0.228,0.232,0.341,0.549,0.341,0.95
		c0,0.296-0.057,0.555-0.171,0.771c-0.114,0.219-0.276,0.398-0.479,0.546c-0.203,0.145-0.444,0.252-0.723,0.322
		c-0.278,0.069-0.582,0.104-0.909,0.104h-2.054V2.124z M27.367,4.586c0.419,0,0.72-0.076,0.905-0.227
		c0.185-0.152,0.277-0.366,0.277-0.645c0-0.272-0.097-0.47-0.291-0.591c-0.193-0.121-0.484-0.182-0.873-0.182h-0.771v1.645H27.367z
		 M27.505,7.249c0.435,0,0.771-0.079,1.007-0.245c0.237-0.163,0.355-0.416,0.355-0.754c0-0.309-0.114-0.538-0.346-0.686
		c-0.23-0.148-0.568-0.223-1.017-0.223h-0.892v1.908H27.505z"/>
	<path fill="#808080" d="M33.191,5.859l-1.78-3.735h1.127l0.645,1.517c0.085,0.226,0.17,0.442,0.255,0.65
		C33.522,4.5,33.613,4.72,33.71,4.95h0.037c0.097-0.23,0.19-0.449,0.282-0.659c0.09-0.208,0.178-0.425,0.263-0.65l0.645-1.517h1.1
		l-1.79,3.735v2.207h-1.055V5.859z"/>
</g>
</svg>
