<svg width="19" height="20" viewBox="0 0 19 20" xmlns="http://www.w3.org/2000/svg"><g fill="#000" fill-rule="nonzero"><path d="M16.448 13.869c.418-.109.819-.254 1.041-.62.262-.43.12-.913-.016-1.378-.106-.362-.206-.704-.122-1.001.085-.301.352-.55.634-.814.362-.338.737-.688.737-1.184s-.375-.846-.737-1.184c-.282-.264-.549-.513-.634-.813-.084-.3.016-.643.122-1.005.137-.464.278-.945.017-1.375-.262-.43-.772-.556-1.265-.676-.384-.094-.746-.183-.977-.402-.228-.22-.322-.562-.421-.925-.129-.47-.262-.955-.715-1.204a1.167 1.167 0 0 0-.58-.139c-.285 0-.58.078-.867.154-.372.098-.769.19-1.06.116-.313-.08-.575-.333-.852-.6-.36-.344-.729-.7-1.253-.7-.523 0-.891.354-1.248.699-.277.267-.54.52-.856.601-.29.074-.684-.018-1.055-.116-.287-.075-.584-.153-.87-.153-.221 0-.411.045-.583.138-.449.248-.581.73-.709 1.197-.1.366-.194.711-.427.932-.23.22-.59.308-.974.402-.492.121-1 .246-1.262.676-.261.43-.122.91.013 1.376.105.362.205.704.12 1.005-.084.3-.35.55-.634.814-.362.338-.737.686-.737 1.182 0 .495.375.845.737 1.183.283.264.55.513.634.815.084.297-.015.639-.12 1-.135.466-.275.948-.013 1.38.222.365.624.51 1.042.62l-1.97 3.234c-.1.168-.099.358-.002.513a.53.53 0 0 0 .472.271l2.153.035c.079 0 .126.046.15.083l1.108 1.754c.1.16.274.253.476.253a.542.542 0 0 0 .471-.26l2.067-3.4c.278.102.517.33.769.574.356.343.724.699 1.248.699s.893-.357 1.252-.701c.25-.242.49-.47.765-.57l2.068 3.4a.546.546 0 0 0 .475.258.545.545 0 0 0 .476-.253l1.102-1.752a.186.186 0 0 1 .16-.085l2.146-.035c.2 0 .372-.097.471-.263a.488.488 0 0 0 0-.523l-1.967-3.233Zm-11.35 5.708a.187.187 0 0 1-.313.004l-1.11-1.756a.543.543 0 0 0-.46-.251l-2.154-.035a.165.165 0 0 1-.154-.092.152.152 0 0 1 0-.17l2.018-3.316c.327.083.628.175.828.367.232.22.327.564.426.928.128.466.26.947.71 1.195.172.094.362.139.584.139.286 0 .582-.077.868-.152a3.69 3.69 0 0 1 .75-.137l-1.992 3.276Zm6.41-3.588c-.409.105-.718.403-1.018.69-.318.308-.62.598-.99.598-.369 0-.669-.29-.986-.595-.3-.29-.61-.588-1.023-.693a1.393 1.393 0 0 0-.351-.042c-.3 0-.603.079-.896.155-.275.072-.534.14-.77.14a.82.82 0 0 1-.4-.093c-.318-.175-.425-.567-.54-.981-.107-.393-.22-.8-.521-1.086-.3-.288-.728-.393-1.143-.495-.438-.108-.852-.21-1.036-.513-.185-.305-.07-.697.05-1.112.113-.39.23-.794.12-1.182-.108-.394-.425-.69-.731-.975-.323-.3-.627-.584-.627-.934 0-.349.304-.632.627-.933.306-.285.623-.58.73-.974.111-.391-.007-.796-.12-1.187-.12-.413-.233-.804-.049-1.108.184-.303.598-.405 1.036-.513.414-.101.843-.207 1.142-.494.303-.287.415-.695.523-1.09.114-.415.221-.808.538-.983a.811.811 0 0 1 .398-.091c.236 0 .496.068.772.141.294.077.598.157.898.157.126 0 .24-.013.35-.041.413-.105.723-.404 1.023-.694.317-.305.617-.594.986-.594.37 0 .672.29.99.597.3.289.61.587 1.019.692.11.028.227.041.352.041.302 0 .607-.08.902-.158.275-.073.534-.14.77-.14a.8.8 0 0 1 .394.091c.321.176.43.571.544.99.106.392.217.797.516 1.083.303.288.731.393 1.146.494.439.108.853.21 1.038.513.184.304.07.694-.052 1.108-.115.39-.233.795-.123 1.187.11.393.426.687.731.972.323.301.627.586.627.935 0 .35-.304.635-.627.937-.305.284-.62.578-.73.97-.111.39.007.794.122 1.185.121.415.236.807.052 1.111-.185.304-.6.406-1.038.513-.415.102-.843.207-1.146.495-.299.285-.41.69-.516 1.08-.115.417-.222.81-.544.988a.81.81 0 0 1-.398.092c-.235 0-.494-.068-.768-.139-.294-.077-.598-.156-.9-.156a1.365 1.365 0 0 0-.352.04Zm6.589 1.46a.169.169 0 0 1-.156.09l-2.147.035a.558.558 0 0 0-.47.253l-1.104 1.755c-.034.055-.087.083-.16.083a.18.18 0 0 1-.158-.087l-1.993-3.277c.236.01.5.072.755.138.285.075.58.152.865.151.22 0 .411-.045.581-.138.455-.25.587-.733.716-1.202.099-.361.193-.703.42-.922.203-.191.505-.283.833-.366l2.017 3.314a.153.153 0 0 1 0 .174Z"/><path d="M15.015 8.872c0-2.886-2.474-5.235-5.515-5.235-3.038 0-5.51 2.349-5.51 5.235 0 2.887 2.472 5.236 5.51 5.236 3.04 0 5.515-2.349 5.515-5.236ZM9.5 13.758c-2.835 0-5.142-2.192-5.142-4.886 0-2.695 2.307-4.886 5.142-4.886 2.839 0 5.148 2.192 5.148 4.886s-2.31 4.886-5.148 4.886Z"/></g></svg>