<svg xmlns="http://www.w3.org/2000/svg" viewBox="0 0 30 30" fill="currentColor"><path d="m29.44 12.32-6.27-1.81L19.51.5a.78.78 0 0 0-.73-.5H.76A.76.76 0 0 0 0 .76v24.63a.76.76 0 0 0 .76.76h3.81a.76.76 0 0 0 0-1.52H1.48V1.44h16.76l3.63 10a.82.82 0 0 0 .5.48l6 1.74v11h-6.74a.76.76 0 0 0 0 1.52h7.61a.76.76 0 0 0 .76-.76V13a.71.71 0 0 0-.56-.68z"/><path d="M13.08 19a5.53 5.53 0 1 0 5.5 5.54 5.52 5.52 0 0 0-5.5-5.54zm0 9.51a4 4 0 1 1 4-4 4 4 0 0 1-4 4zm4.74-17.12H11v-6.9a.76.76 0 1 0-1.52 0v7.61a.76.76 0 0 0 .76.76h7.56a.76.76 0 1 0 0-1.52z"/></svg>