<svg width="31" height="19" viewBox="0 0 31 19" xmlns="http://www.w3.org/2000/svg"><g fill="#000" fill-rule="nonzero"><path d="M31 9.529c0-.03-.01-.057-.023-.081-.166-1.765-1.279-4.634-1.964-6.267a1.607 1.607 0 0 0-1.485-.988h-6.804v-.014A1.9 1.9 0 0 0 18.826.28H8.134c-.849 0-1.6.571-1.829 1.39a.17.17 0 1 0 .33.091A1.56 1.56 0 0 1 8.134.623h10.691c.858 0 1.556.698 1.556 1.556V12.47H3.651l.74-2.655a.171.171 0 1 0-.33-.092l-.8 2.872c-.002.006 0 .012-.001.018-.002.01-.006.018-.006.028v1.556c0 .668.545 1.212 1.213 1.212h1.665a2.584 2.584 0 0 0-.023.329 2.586 2.586 0 0 0 2.583 2.583 2.586 2.586 0 0 0 2.583-2.583c0-.112-.01-.22-.023-.329H23.13a2.584 2.584 0 0 0-.023.329 2.586 2.586 0 0 0 2.583 2.583 2.586 2.586 0 0 0 2.584-2.583c0-.112-.01-.22-.024-.329h1.536c.67 0 1.213-.544 1.213-1.212V9.864c0-.088-.005-.182-.011-.277A.164.164 0 0 0 31 9.53ZM20.724 2.535h6.804c.512 0 .97.305 1.169.778.536 1.277 1.715 4.241 1.925 6.044h-1.45a.94.94 0 0 1-.803-.454l-.789-1.316a2.542 2.542 0 0 0-2.168-1.228h-4.688V2.535ZM8.692 17.978a2.243 2.243 0 0 1-2.19-2.713 2.21 2.21 0 0 1 .104-.34l.013-.035a2.21 2.21 0 0 1 .155-.305l.026-.043c.061-.097.129-.188.204-.274l.021-.024c.244-.27.551-.481.896-.609l.03-.01c.109-.04.222-.07.338-.091l.043-.007c.118-.019.238-.031.36-.031.123 0 .243.012.36.031l.044.007c.116.021.229.052.339.09l.029.011c.344.128.652.338.896.61l.021.023a2.235 2.235 0 0 1 .385.622l.013.035a2.2 2.2 0 0 1 .154.812 2.244 2.244 0 0 1-2.24 2.24Zm16.999 0a2.243 2.243 0 0 1-2.191-2.71c.025-.119.061-.234.105-.345.004-.01.007-.022.012-.032a2.207 2.207 0 0 1 .181-.348c.061-.097.13-.189.204-.274l.021-.023a2.26 2.26 0 0 1 .897-.61l.028-.01c.11-.04.223-.07.34-.091l.043-.007c.118-.019.237-.031.36-.031.122 0 .242.012.36.031l.043.007c.116.021.23.052.339.09l.029.011c.345.128.652.338.896.61l.022.023c.074.085.142.177.203.274.01.014.018.028.027.043.059.097.11.198.155.305l.012.032a2.18 2.18 0 0 1 .155.814 2.244 2.244 0 0 1-2.241 2.24Zm4.967-3.782c0 .48-.391.87-.871.87h-1.601c-.003-.01-.008-.018-.01-.028a2.584 2.584 0 0 0-.128-.353c-.008-.019-.017-.036-.026-.054a2.587 2.587 0 0 0-.437-.644l-.023-.026a2.63 2.63 0 0 0-.292-.264l-.017-.013a2.58 2.58 0 0 0-.706-.382l-.027-.01a2.536 2.536 0 0 0-.376-.096l-.059-.01c-.129-.02-.26-.033-.394-.033-.135 0-.266.014-.395.034-.02.003-.04.005-.059.009a2.58 2.58 0 0 0-.375.096l-.028.01c-.256.09-.493.22-.706.382l-.017.013c-.104.08-.201.169-.292.264l-.023.026c-.176.19-.323.407-.436.644a2.584 2.584 0 0 0-.154.407c-.003.01-.008.018-.01.028h-12.01c-.002-.01-.007-.018-.01-.028a2.545 2.545 0 0 0-.127-.353c-.008-.019-.018-.036-.027-.055a2.594 2.594 0 0 0-.435-.642l-.024-.027a2.57 2.57 0 0 0-.291-.263l-.019-.014a2.582 2.582 0 0 0-1.108-.488l-.059-.009c-.129-.02-.26-.033-.394-.033-.135 0-.266.013-.395.033l-.059.009a2.563 2.563 0 0 0-.375.096l-.028.01c-.256.091-.493.22-.705.382l-.018.014c-.104.08-.201.168-.291.263l-.025.027c-.175.19-.322.406-.435.642l-.027.055a2.557 2.557 0 0 0-.127.353c-.003.01-.008.018-.01.028h-1.73c-.48 0-.87-.39-.87-.87V12.81h27.06v1.385Zm0-1.727h-9.934V8.358h3.74a.171.171 0 1 0 0-.342h-3.74V6.703h4.688c.763 0 1.482.406 1.875 1.06l.789 1.316c.23.383.65.62 1.096.62h1.478c.002.055.008.113.008.164v2.606Z"/><path d="M25.69 14.01c-.952 0-1.726.775-1.726 1.727 0 .952.774 1.727 1.727 1.727.952 0 1.727-.775 1.727-1.727a1.73 1.73 0 0 0-1.727-1.727Zm0 3.111c-.763 0-1.384-.62-1.384-1.384 0-.763.621-1.385 1.385-1.385.763 0 1.384.621 1.384 1.385s-.621 1.384-1.384 1.384ZM8.692 14.01a1.73 1.73 0 0 0-1.727 1.727c0 .952.775 1.727 1.727 1.727.952 0 1.727-.775 1.727-1.727a1.73 1.73 0 0 0-1.727-1.727Zm0 3.111a1.386 1.386 0 0 1 0-2.769 1.386 1.386 0 0 1 0 2.769ZM2.05 4.24c0 .057-.003.104-.008.143a.308.308 0 0 1-.023.091.147.147 0 0 1-.035.051.067.067 0 0 1-.045.017H.745v.982h1.12c.017 0 .033.005.046.014.013.01.024.026.035.048.01.023.017.053.022.09a1.228 1.228 0 0 1 0 .282.36.36 0 0 1-.022.094.134.134 0 0 1-.035.052.071.071 0 0 1-.045.016H.745v1.36c0 .021-.006.04-.017.054a.128.128 0 0 1-.06.038.561.561 0 0 1-.115.024 1.513 1.513 0 0 1-.18.009 1.61 1.61 0 0 1-.18-.009.512.512 0 0 1-.114-.024.135.135 0 0 1-.06-.038A.085.085 0 0 1 0 7.48V4.17c0-.083.021-.143.064-.18a.232.232 0 0 1 .156-.055h1.72a.07.07 0 0 1 .044.015.13.13 0 0 1 .035.051c.01.024.018.056.023.095.005.04.007.088.007.144ZM5.362 7.491a.11.11 0 0 1-.011.053c-.008.014-.026.026-.054.035a.54.54 0 0 1-.124.02 3.372 3.372 0 0 1-.412 0 .436.436 0 0 1-.112-.022.118.118 0 0 1-.058-.04.216.216 0 0 1-.028-.057l-.327-.816a3.608 3.608 0 0 0-.116-.245.794.794 0 0 0-.126-.18.46.46 0 0 0-.16-.108.552.552 0 0 0-.208-.037h-.232v1.391a.08.08 0 0 1-.018.051.126.126 0 0 1-.06.037.59.59 0 0 1-.113.022 1.521 1.521 0 0 1-.18.009 1.61 1.61 0 0 1-.18-.009.625.625 0 0 1-.115-.022.118.118 0 0 1-.059-.037.082.082 0 0 1-.017-.05V4.168c0-.083.022-.142.064-.18a.232.232 0 0 1 .157-.054h.945a4 4 0 0 1 .407.02c.146.02.278.056.396.107a.95.95 0 0 1 .299.199.83.83 0 0 1 .188.29c.043.112.065.24.065.386 0 .122-.016.233-.047.334a.855.855 0 0 1-.36.476c-.088.059-.189.105-.302.141a.852.852 0 0 1 .29.233c.042.054.082.115.12.183.037.07.074.147.11.233l.307.72c.029.072.047.124.057.157.01.033.014.059.014.077Zm-.957-2.478a.54.54 0 0 0-.082-.304.445.445 0 0 0-.268-.175.96.96 0 0 0-.128-.023 1.746 1.746 0 0 0-.199-.009h-.333v1.036h.378A.903.903 0 0 0 4.05 5.5a.556.556 0 0 0 .197-.107.439.439 0 0 0 .119-.165.552.552 0 0 0 .04-.215ZM8.072 7.297c0 .054-.003.1-.007.136a.363.363 0 0 1-.021.09.12.12 0 0 1-.035.049.077.077 0 0 1-.047.015H6.128a.23.23 0 0 1-.157-.055c-.042-.036-.064-.096-.064-.179V4.17c0-.083.022-.143.064-.18a.232.232 0 0 1 .157-.055H7.95c.017 0 .032.005.045.014.013.01.024.026.034.05.009.023.016.053.021.09.005.036.007.083.007.14 0 .052-.002.097-.007.133a.35.35 0 0 1-.021.089.12.12 0 0 1-.034.05.071.071 0 0 1-.045.015H6.647v.892H7.75a.08.08 0 0 1 .046.015c.015.01.026.027.036.048.009.022.016.051.021.088a1.12 1.12 0 0 1 0 .27.326.326 0 0 1-.021.085.101.101 0 0 1-.035.047.08.08 0 0 1-.047.014H6.646v1.03h1.315c.018 0 .033.005.047.015.014.01.026.028.035.05.01.023.017.052.021.089.005.037.008.083.008.138ZM10.891 7.297c0 .054-.002.1-.007.136a.363.363 0 0 1-.02.09.12.12 0 0 1-.036.049.077.077 0 0 1-.047.015H8.947a.23.23 0 0 1-.157-.055c-.042-.036-.063-.096-.063-.179V4.17c0-.083.02-.143.063-.18a.232.232 0 0 1 .157-.055h1.823c.017 0 .032.005.045.014.013.01.025.026.034.05.01.023.017.053.021.09.005.036.007.083.007.14 0 .052-.002.097-.007.133a.35.35 0 0 1-.021.089.12.12 0 0 1-.034.05.071.071 0 0 1-.045.015H9.466v.892h1.104a.08.08 0 0 1 .046.015c.014.01.026.027.035.048.01.022.017.051.022.088a1.12 1.12 0 0 1 0 .27.326.326 0 0 1-.022.085.101.101 0 0 1-.035.047.08.08 0 0 1-.046.014H9.466v1.03h1.315c.017 0 .032.005.047.015.014.01.025.028.035.05.009.023.016.052.02.089.006.037.008.083.008.138Z"/></g></svg>