<svg xmlns="http://www.w3.org/2000/svg" viewBox="0 0 30 30" fill="currentColor"><path d="M2.14 0a2.14 2.14 0 1 0 2.14 2.14A2.14 2.14 0 0 0 2.14 0zM15 0a2.14 2.14 0 1 0 2.14 2.14A2.14 2.14 0 0 0 15 0zm12.86 4.28a2.14 2.14 0 1 0-2.14-2.14 2.14 2.14 0 0 0 2.14 2.14zM2.14 12.86A2.14 2.14 0 1 0 4.28 15a2.14 2.14 0 0 0-2.14-2.14z"/><circle cx="15" cy="15" r="2.14"/><path d="M27.86 12.86A2.14 2.14 0 1 0 30 15a2.14 2.14 0 0 0-2.14-2.14zM2.14 25.72a2.14 2.14 0 1 0 2.14 2.14 2.14 2.14 0 0 0-2.14-2.14zm12.86 0a2.14 2.14 0 1 0 2.14 2.14A2.14 2.14 0 0 0 15 25.72zm12.86 0A2.14 2.14 0 1 0 30 27.86a2.14 2.14 0 0 0-2.14-2.14z"/></svg>