<svg xmlns="http://www.w3.org/2000/svg" viewBox="0 0 29.98 30" fill="#FFF"><path d="m26.85 22-6.23-2a3 3 0 0 1-2-2.89v-1.76a10.87 10.87 0 0 0 3.82-7.92 7.44 7.44 0 0 0-14.87 0 10.82 10.82 0 0 0 3.81 7.92V17a3.06 3.06 0 0 1-2 2.91l-6.23 2A4.58 4.58 0 0 0 0 26.26v3a.76.76 0 0 0 .76.74h28.46a.76.76 0 0 0 .76-.76v-2.92A4.57 4.57 0 0 0 26.85 22zM9 7.35a5.91 5.91 0 0 1 11.82 0c0 3.46-2.77 7.82-5.91 7.82S9 10.81 9 7.35zm19.46 21.18H1.37v-2.21a3.07 3.07 0 0 1 2-2.89l6.23-2A4.58 4.58 0 0 0 12.9 17v-.77a4.93 4.93 0 0 0 4.18 0V17a4.57 4.57 0 0 0 3.14 4.34l6.23 2a3.06 3.06 0 0 1 2 2.89z"/></svg>