<svg xmlns="http://www.w3.org/2000/svg" viewBox="0 0 30 30" fill="currentColor"><path d="M15 0a15 15 0 1 0 15 15A15 15 0 0 0 15 0zm13.34 14.18h-6.46a21.39 21.39 0 0 0-3.32-12 13.41 13.41 0 0 1 9.78 12zM15 28.38c-2.4 0-5.06-5.12-5.26-12.56h10.52c-.2 7.44-2.86 12.56-5.26 12.56zm-5.26-14.2C9.94 6.74 12.6 1.62 15 1.62s5.06 5.12 5.26 12.56zm1.7-12a21.39 21.39 0 0 0-3.32 12H1.66a13.41 13.41 0 0 1 9.78-12.06zm-9.78 13.7h6.46a21.39 21.39 0 0 0 3.32 12 13.41 13.41 0 0 1-9.78-12.06zm16.9 12a21.39 21.39 0 0 0 3.32-12h6.46a13.41 13.41 0 0 1-9.78 12z"/></svg>