<svg xmlns="http://www.w3.org/2000/svg" viewBox="0 0 42 42" fill="currentColor"><path d="M7.795.013c-.554.055-1.126.27-1.68.656-.656.459-2.099 1.6-3.437 2.886-.67.643-1.294 1.316-1.785 1.968-.49.652-.918 1.232-.892 2.047.025.79.092 3.09 1.758 6.64 1.667 3.548 4.924 8.438 11.258 14.773 6.335 6.337 11.225 9.591 14.774 11.258 3.549 1.666 5.823 1.732 6.613 1.758.815.025 1.421-.402 2.073-.892.651-.491 1.326-1.115 1.968-1.785 1.285-1.338 2.428-2.78 2.886-3.437 1.03-1.468.847-3.185-.262-3.963-.723-.506-7.605-5.081-8.607-5.694-.975-.595-2.133-.31-3.175.236-.008.004-.019-.004-.027 0-.87.459-3.243 1.815-3.83 2.152-.433-.272-2.332-1.519-6.43-5.616-4.06-4.06-5.326-5.943-5.616-6.403.327-.571 1.7-3.023 2.152-3.884.552-1.044.838-2.211.21-3.201a361.158 361.158 0 0 0-2.834-4.356C11.62 3.202 10.387 1.36 10.078.93 9.688.391 9.05.071 8.346.013a3.044 3.044 0 0 0-.551 0zm.157 1.705c.083-.004.164-.008.236 0 .292.035.5.148.525.184.164.227 1.492 2.247 2.782 4.199a709.65 709.65 0 0 1 2.834 4.303c.075.119.098.79-.289 1.522v.026c-.43.82-2.388 4.252-2.388 4.252l-.236.42.236.42s1.46 2.456 6.14 7.137c4.683 4.681 7.165 6.167 7.165 6.167l.42.236.42-.236s3.43-1.983 4.25-2.415c.728-.384 1.414-.344 1.549-.262.69.422 8.03 5.311 8.502 5.642.087.06.458.724-.157 1.6a32.354 32.354 0 0 1-2.703 3.255c-.605.63-1.252 1.2-1.785 1.6-.521.393-.966.545-.97.551h-.027c-.821-.026-2.651-.048-5.957-1.6-3.326-1.562-8.068-4.682-14.301-10.917C7.966 21.57 4.843 16.827 3.28 13.501c-1.562-3.327-1.574-5.17-1.6-5.983 0 .014.15-.465.55-.998.401-.532.972-1.153 1.601-1.758 1.26-1.209 2.739-2.368 3.254-2.729a1.63 1.63 0 0 1 .866-.315z"/></svg>