<svg xmlns="http://www.w3.org/2000/svg" viewBox="0 0 30 30" fill="currentColor"><path d="M15 0a15 15 0 1 0 15 15A15 15 0 0 0 15 0zm0 28.48A13.48 13.48 0 1 1 28.48 15 13.49 13.49 0 0 1 15 28.48z"/><path d="M15 20.7a1.9 1.9 0 1 0 1.9 1.9 1.9 1.9 0 0 0-1.9-1.9zM16.7 5a5.52 5.52 0 0 0-5.06 1.08.77.77 0 0 0-.14 1.07.76.76 0 0 0 1.07.13l.09-.08a4.13 4.13 0 0 1 3.62-.76A2.29 2.29 0 0 1 17.92 8c.36 1.32-.12 2-1.18 3.06a7.81 7.81 0 0 0-2.5 5.9.76.76 0 1 0 1.52 0 6.41 6.41 0 0 1 2.1-4.82 4.28 4.28 0 0 0 1.52-4.44A3.72 3.72 0 0 0 16.7 5z"/></svg>