<svg xmlns="http://www.w3.org/2000/svg" viewBox="0 0 161 30"><path d="m50.517 17.293 2.754-8.004 2.676 8.004h-5.43zm-29.68-3.5h-1.493V6.149h1.235c2.188 0 3.655 1.39 3.655 3.989 0 1.442-1.132 3.655-3.397 3.655zm-16.692 3.5L6.898 9.29l2.677 8.004h-5.43zM82.047 6.15v-.67h-9.336v.67h1.441v12.61L65.505 5.48H61.49v.669h1.441v16.91h-2.454L54.223 4.682l-6.486 18.377h-2.375V6.149h1.442v-.67h-3.809L38.21 19.352 33.189 5.48h-3.731v.67h1.44v16.91h-2.854c-.798-.026-1.493-.721-1.493-1.931v-2.676c0-2.034-.67-3.758-2.728-4.325 1.801-.54 3.037-2.264 3.037-4.092 0-2.573-1.931-4.556-5.688-4.556h-5.663v.67h1.468v16.91h-2.872L7.85 4.682 1.365 23.059H0v.668h3.526v-.668H2.111l1.802-5.096H9.78l1.724 5.096h-2.11v.668h12.163v-.668h-2.214v-8.597h1.493c2.162 0 3.269.875 3.269 2.985v1.57c0 3.707 2.445 4.71 3.783 4.71h5.095v-.668h-1.441V8.079l5.894 15.854L43.02 7.59v15.47h-1.44v.668h8.32v-.668h-1.416l1.802-5.096h5.868l1.725 5.096h-2.11v.668h9.248v-.668h-1.441V7.076l11.221 17.243V6.15h3.468v16.91h-1.441v.668h5.224v-.668h-1.44V6.149h1.44zm6.46 23.345h-.746L99.368 0h.747zm29.495-19.149c0-2.6-.695-4.195-3.681-4.195h-4.015v8.03h1.132c1.956 0 2.755-.978 2.755-2.753h.643v6.176h-.643c0-1.724-.799-2.753-2.755-2.753h-1.132v8.21h2.24v.669h-6.024v-.644h1.443V6.15h-1.443v-.669h12.123v4.864h-.643zm6.562-4.195h-1.441V23.06h1.44v.67h-5.224v-.67h1.441V6.151h-1.44v-.67h5.224zm8.416-.437c-4.53 0-4.865 6.048-4.865 8.905 0 2.882.258 8.88 4.865 8.88s4.89-6.024 4.89-8.88c0-2.857-.386-8.905-4.89-8.905m0 18.454c-4.555 0-7.928-4.917-7.928-9.55 0-4.22 3.115-9.574 7.928-9.574 4.556 0 7.927 5.328 7.927 9.575 0 4.916-3.371 9.549-7.927 9.549m13.743-10.373h-1.492V6.15h1.235c2.188 0 3.655 1.39 3.655 3.989 0 1.442-1.133 3.655-3.398 3.655zm13.729-7.644v-.67h-5.225v.67h1.441v16.91h-2.739c-.797-.027-1.492-.721-1.492-1.931v-2.677c0-2.033-.67-3.758-2.729-4.324 1.803-.54 3.038-2.264 3.038-4.092 0-2.573-1.931-4.555-5.688-4.555h-5.662v.669h1.467v16.91h-1.467v.669h6.048v-.67h-2.213v-8.596h1.492c2.162 0 3.269.875 3.269 2.986v1.57c0 3.706 2.445 4.71 3.783 4.71h6.677v-.67h-1.441V6.151h1.44z" fill="#181818" fill-rule="evenodd"></path></svg>