<svg viewBox="0 0 313.919 25.034" xmlns="http://www.w3.org/2000/svg"><path d="M94.86 1.617v21.6h1.1v-19.6l14.4 19.6h.8l.2-21.6h-1v15.3l-11.4-15.3zm23.9 0h3.7v21.7h-3.7zm133.9 0v21.6h.9v-19.6l14.4 19.6h1v-21.6h-1v15.3l-11.4-15.3zm-217.2 21.6h4.2l-6.1-11c3-.5 5.1-2.3 5.1-5.3 0-3.7-3.3-5.4-7.4-5.4h-6.5v21.7h3.7v-10.7h1.4l5.6 10.7zm-7.2-11.6v-9.1h1.9c3.2 0 4.6 1.9 4.6 4.6s-1.4 4.6-4.6 4.6h-1.9zm271.4-10v21.6h13.3v-.9h-9.6v-10h6.6v-.9h-6.6v-8.9h9.6v-.9zm-155.1 0v21.6h13.4v-.9h-9.8v-10h6.7v-.9h-6.7v-8.9h9.8v-.9zm75.1 0v10h-8.9v-10h-3.7v21.6h3.7v-10.5h8.9v10.5h3.7v-21.6zm-157.4 0-5.9 16-6.3-16h-4.1v21.6h1.1v-19.6l7.4 19.1h1l7-19.1v19.6h3.7v-21.6zm122 10.9c0 6.3 3.9 11.4 9.5 11.4 3.3 0 5.6-1.9 6.8-3.7l-.9-.5c-1.1 1.6-3 3.3-5.8 3.3-4.6 0-5.8-5.6-5.8-10.3 0-4.7 1.2-10.3 5.8-10.3 2.6 0 4.6 1.8 5.8 3.3l.9-.5c-1.2-1.8-3.5-3.7-6.8-3.7-5.4-.4-9.5 4.7-9.5 11m95.4 0c0-4.7 1.2-10.3 5.8-10.3 2.6 0 4.6 1.8 5.8 3.3l.9-.5c-1.2-1.8-3.5-3.7-6.8-3.7-5.6 0-9.5 5.1-9.5 11.4 0 6.3 4 11.4 9.6 11.4 4.9 0 7.5-5.1 7.5-5.1v-4h-6.7v1.1h3v4.2c0 1.2-1.2 3-3.7 3-4.5-.5-5.9-6.1-5.9-10.8m-265.2 10.7h3.9L9.76.917h-.6l-8.2 22.3h1.1l2.3-5.8h8.1l2 5.8zm-6.1-16.3 3.7 9.6h-7.4l3.7-9.6zm77.1 16.3h4l-8.6-22.3h-.5l-8.6 22.3h1.1l2.3-5.8h8.1l2.2 5.8zm-6.3-16.3 3.7 9.6h-7.4l3.7-9.6zm163.9 16.3h3.9l-8.6-22.3h-.5l-8.6 22.3h1.1l2.3-5.8h8.1l2.3 5.8zm-6.3-16.3 3.7 9.6h-7.4l3.7-9.6zm-70-5.3h-4.4l7.6 11.4-7 10.2h1.2l6.3-9.3 6.3 9.3h4.2l-8.1-12.5 6.5-9.1h-1.2l-6 8.3z"></path></svg>