<svg viewBox="0 0 393.9 51.7" xmlns="http://www.w3.org/2000/svg"><g fill="#181818" fill-rule="evenodd"><path d="M35.9 49.3c-3.3 0-9.5-2.4-9.5-12v-4.6c0-5.7-3-8.1-8.9-8.1h-4.2v23.2h5.8v1H4.2v-1H8V3H4.2V2h14.3C28.3 2 33 7 33 13.6c0 5.1-3.9 9.8-9.3 10.6 6.4 1 8.5 5.6 8.5 11.4v7.3c0 3.3 1.9 5.5 4.3 5.5.5 0 1.7-.1 2.7-1.1l.6.8c-.8.6-1.7 1.2-3.9 1.2zM16.9 3h-3.6v20.7h4.2c6.3 0 9.3-6 9.3-9.8 0-7.1-4-10.9-9.9-10.9zM71.1 14.2c0-6.5-2-11.2-9.9-11.2h-11v21.7h3.4c5.2 0 7.6-2.6 7.6-7.2h.9v15.3h-.9c0-4.5-2.4-7.2-7.6-7.2h-3.4v22.2h7.7c11.6 0 13.2-5.6 13.2-12.5h.9v13.5H40.7v-1h4.1V3h-4.1V2H72v12.2h-.9zM89.4 50c-2.4 0-4.3-.7-5.9-1.4-1.3-.5-2.6-1.7-4.7-1.7-1.7 0-2.6 1.7-2.8 3h-.8V35h.9c0 3.9 2.2 8.3 5.9 11.3 2 1.7 4.6 2.7 7.5 2.7 7 0 10.8-4.8 10.8-9 0-8-4.8-10.1-13.6-12.5C80 25.7 76 21.1 76 14.4 76 6.3 81.9.9 88.1.9c5.5 0 7.6 3.4 9.5 3.4 1.8 0 2-1.8 2.2-2.5h.8v13.1h-.8c0-6.3-5-13-11.7-13-4.8 0-9.1 3.4-9.1 8.9 0 5.3 3.8 8.9 11.8 11 8.2 2.3 12.5 5 12.5 13.5-.1 6-3.6 14.7-13.9 14.7zM137 16.2C137 7.5 135.5 3 125.2 3h-1.9v44.9h4.1v1h-13.6v-1h4.1V3H116c-8.4 0-12 4.5-12 13.2h-.9V2H138v14.2h-1zM157.3 48.9v-1h5.9l-4.8-14.5h-15.7l-5 14.5h4.3v1h-8.7v-1h3.3L153.1 0l16.1 47.9h4.4v1h-16.3zm-6.7-39L143 32.3h15l-7.4-22.4zM205 3v30.5c0 9.3-4 16.5-14 16.5-12.4 0-15.5-7.5-15.5-16.5V3h-3.8V2h12.9v1h-3.8v30.7c0 10.3 4.3 14.7 11.6 14.7 8.5 0 11.6-6.9 11.6-14.7V3h-3.8V2h8.5v1H205zM242 49.3c-3.3 0-9.5-2.4-9.5-12v-4.6c0-5.7-3-8.1-8.9-8.1h-4.2v23.2h5.8v1h-14.9v-1h3.8V3h-3.8V2h14.3c9.8 0 14.5 5 14.5 11.6 0 5.1-3.9 9.8-9.3 10.6 6.4 1 8.5 5.6 8.5 11.4v7.3c0 3.3 1.9 5.5 4.3 5.5.5 0 1.7-.1 2.7-1.1l.6.8c-.8.6-1.7 1.2-3.9 1.2zM223 3h-3.6v20.7h4.2c6.3 0 9.3-6 9.3-9.8 0-7.1-4-10.9-9.9-10.9zM270.2 48.9v-1h5.9l-4.8-14.5h-15.7l-5 14.5h4.3v1h-8.7v-1h3.3L266 0l16.1 47.9h4.4v1h-16.3zm-6.7-39-7.6 22.4h15l-7.4-22.4zM321.3 3v47.5l-29.2-46v43.4h3.7v1h-8.5v-1h3.8V3h-3.8V2h9.9l23.1 36.5V3h-3.8V2h8.5v1h-3.7zM360.4 16.2c0-8.7-1.6-13.2-11.9-13.2h-1.9v44.9h4.1v1h-13.6v-1h4.1V3h-1.9c-8.4 0-12 4.5-12 13.2h-.9V2h34.9v14.2h-.9zM377.8 50c-2.4 0-4.3-.7-5.9-1.4-1.3-.5-2.6-1.7-4.7-1.7-1.7 0-2.6 1.7-2.8 3h-.8V35h.9c0 3.9 2.2 8.3 5.9 11.3 2 1.7 4.6 2.7 7.5 2.7 7 0 10.8-4.8 10.8-9 0-8-4.8-10.1-13.6-12.5-6.5-1.8-10.6-6.4-10.6-13.1 0-8.1 5.9-13.5 12.1-13.5 5.5 0 7.6 3.4 9.5 3.4 1.8 0 2-1.8 2.2-2.5h.8v13.1h-.8c0-6.3-5-13-11.7-13-4.8 0-9.1 3.4-9.1 8.9 0 5.3 3.8 8.9 11.8 11 8.2 2.3 12.5 5 12.5 13.5-.2 6-3.7 14.7-14 14.7z"></path></g></svg>