<svg xmlns="http://www.w3.org/2000/svg" xmlns:xlink="http://www.w3.org/1999/xlink" viewBox="0 0 284 50"><defs><path id="a" d="M.521 49h20.484V.092H.521z"></path><path id="c" d="M9.465 30.44V.183H.801V30.44h8.664z"></path></defs><g fill="none" fill-rule="evenodd"><path fill="#181818" d="m83.765 29.676 4.566-13.272 4.438 13.272h-9.004zm-49.214-5.804h-2.475V11.197h2.048c3.627 0 6.061 2.305 6.061 6.615 0 2.39-1.878 6.06-5.634 6.06zM6.872 29.676l4.566-13.272 4.438 13.272H6.872zm129.174-18.48v-1.11h-15.48v1.11h2.39v20.912l-14.339-22.021h-6.658v1.11h2.39v28.039h-4.069L89.91 8.765l-10.755 30.47h-3.937V11.198h2.391v-1.11h-6.317L63.355 33.09l-8.322-23.003h-6.188v1.11h2.39v28.039H46.5c-1.323-.043-2.475-1.195-2.475-3.203v-4.437c0-3.371-1.11-6.231-4.524-7.17 2.988-.895 5.036-3.755 5.036-6.785 0-4.267-3.2-7.554-9.43-7.554h-9.39v1.11h2.432v28.039h-4.762L13.017 8.765 2.262 39.235H0v1.11h5.847v-1.11H3.5l2.987-8.45h9.73l2.86 8.45h-3.5v1.11h20.17v-1.11h-3.67V24.983h2.474c3.585 0 5.42 1.45 5.42 4.95v2.602c0 6.147 4.054 7.81 6.273 7.81h8.448v-1.108h-2.39V14.398l9.773 26.289 9.26-27.1v25.649h-2.39v1.109h13.796v-1.11h-2.348l2.988-8.45h9.73l2.86 8.45h-3.5v1.11h15.335v-1.11h-2.39v-26.5l18.607 28.59V11.198h5.75v28.039h-2.389v1.109h8.662v-1.11h-2.389V11.198h2.39z"></path><g transform="translate(145 .908)"><mask id="b" fill="#fff"><use xlink:href="#a"></use></mask><path fill="#181818" d="M1.758 49H.521L19.768.092h1.237z" mask="url(#b)"></path></g><path fill="#181818" d="M187.256 11.2h-4.396v28.04h4.396c7.384 0 8.151-7.77 8.151-14.042 0-6.187-.767-13.997-8.15-13.997m0 29.147H176.63V39.24h2.391V11.2h-2.39v-1.11h10.625c7.937 0 13.146 7.555 13.146 15.108 0 8.15-5.209 15.15-13.146 15.15m28.338-29.873c-7.513 0-8.067 10.029-8.067 14.766 0 4.779.426 14.723 8.067 14.723 7.638 0 8.106-9.987 8.106-14.723 0-4.737-.638-14.766-8.106-14.766m0 30.6c-7.555 0-13.146-8.152-13.146-15.834 0-7 5.165-15.876 13.146-15.876 7.553 0 13.144 8.834 13.144 15.876 0 8.15-5.59 15.834-13.144 15.834m13.735-.727V39.24h2.56V11.2h-2.56v-1.11h9.047v1.11h-2.561v28.04h3.927c7.169 0 8.192-3.671 8.192-8.282h1.025v9.39h-19.63zm41.779.64c-.086-.599-.556-1.28-1.451-1.28-1.75 0-3.584 1.366-6.146 1.366-7.425 0-12.93-8.108-12.93-15.834 0-6.999 4.907-15.875 13.1-15.875 2.434 0 3.885 1.622 5.122 1.622.982 0 1.45-.598 1.578-1.494h1.026v9.602h-.983c-.34-4.48-3.37-8.62-6.742-8.62-7.681 0-8.065 10.711-8.065 14.765 0 4.737.427 14.724 7.894 14.724 4.012 0 7.554-3.54 7.554-9.389h1.024v10.413h-.981z"></path><g transform="translate(274 9.908)"><mask id="d" fill="#fff"><use xlink:href="#c"></use></mask><path fill="#181818" d="M9.465 1.293H7.073v28.039h2.392v1.108H.801v-1.108h2.391V1.292H.802V.183h8.663z" mask="url(#d)"></path></g></g></svg>