<svg xmlns="http://www.w3.org/2000/svg" width="272" height="49" viewBox="0 0 272 49"><g xmlns="http://www.w3.org/2000/svg" fill-rule="evenodd"><path fill="#181818" d="m164.52 0-18.94 48.13h1.217L165.74 0zm21.122 39.437c-3.359 0-4.87-1.975-6.509-1.975-.967 0-1.47.924-1.68 1.89h-.924v-9.7h1.008c0 2.812 1.848 6.131 4.62 7.726 1.05.588 2.267.966 3.485.966 4.284 0 6.51-2.897 6.51-5.375 0-4.83-2.814-6.09-8.358-7.602-4.158-1.134-6.76-4.116-6.76-8.4 0-5.166 3.82-8.735 7.81-8.735 3.486 0 4.872 2.142 5.922 2.142.924 0 1.05-.84 1.177-1.554h.924v8.61h-.967c0-4.075-3.066-8.106-7.056-8.106-2.939 0-5.502 2.015-5.502 5.333 0 3.108 2.27 5.292 7.182 6.636 5.166 1.47 8.022 3.192 8.022 8.736 0 3.822-2.309 9.408-8.904 9.408m18.352-29.4H201.6V37.63h2.394v1.092h-8.61V37.63h2.394V10.037h-2.393V8.945h8.609zm2.266 28.685V37.63h2.395V10.037h-2.394V8.945h8.65v1.092h-2.393V37.63h3.863c7.056 0 8.065-3.612 8.065-8.147h1.007v9.24h-19.192zm33.005-29.398c-7.39 0-7.937 9.869-7.937 14.53 0 4.704.42 14.49 7.937 14.49 7.52 0 7.98-9.827 7.98-14.49 0-4.661-.629-14.53-7.98-14.53m0 30.113c-7.433 0-12.936-8.022-12.936-15.582 0-6.887 5.082-15.623 12.936-15.623 7.435 0 12.936 8.694 12.936 15.623 0 8.023-5.5 15.582-12.936 15.582m23.013 0c-3.359 0-4.872-1.975-6.51-1.975-.966 0-1.469.924-1.679 1.89h-.924v-9.7h1.008c0 2.812 1.847 6.131 4.62 7.726 1.048.588 2.267.966 3.485.966 4.283 0 6.51-2.897 6.51-5.375 0-4.83-2.815-6.09-8.358-7.602-4.158-1.134-6.762-4.116-6.762-8.4 0-5.166 3.823-8.735 7.812-8.735 3.486 0 4.872 2.142 5.922 2.142.924 0 1.05-.84 1.176-1.554h.924v8.61h-.966c0-4.075-3.067-8.106-7.056-8.106-2.939 0-5.502 2.015-5.502 5.333 0 3.108 2.27 5.292 7.182 6.636 5.166 1.47 8.022 3.192 8.022 8.736 0 3.822-2.31 9.408-8.904 9.408M83.764 28.418l4.567-13.271 4.438 13.271h-9.005zm-49.213-5.803h-2.476V9.94h2.048c3.628 0 6.06 2.304 6.06 6.614 0 2.39-1.877 6.06-5.633 6.06zM6.87 28.418l4.566-13.271 4.439 13.271H6.87zM136.046 9.94V8.83h-15.48v1.11h2.388v20.912L108.617 8.83h-6.659v1.11h2.39v28.039h-4.069L89.91 7.506 79.154 37.98h-3.936V9.939h2.39V8.83h-6.317l-7.936 23.003L55.032 8.83h-6.189v1.11h2.39v28.04H46.5c-1.323-.044-2.474-1.195-2.474-3.203v-4.438c0-3.37-1.11-6.23-4.524-7.17 2.988-.896 5.035-3.755 5.035-6.784 0-4.267-3.2-7.554-9.43-7.554h-9.39v1.11h2.432V37.98h-4.761L13.017 7.506 2.261 37.98H-.002v1.108h5.847V37.98H3.5l2.988-8.45h9.73l2.86 8.45h-3.5v1.108h20.169V37.98h-3.67V23.723h2.474c3.586 0 5.42 1.45 5.42 4.951v2.604c0 6.146 4.055 7.81 6.273 7.81h8.448v-1.11h-2.39V13.142l9.773 26.288 9.26-27.1v25.649h-2.39v1.108H82.74V37.98h-2.347l2.987-8.45h9.73l2.86 8.45h-3.5v1.108h15.335V37.98h-2.39V11.476l18.607 28.592V9.94h5.75v28.04h-2.388v1.108h8.662V37.98h-2.39V9.939h2.39z"></path></g></svg>