<svg version="1.1" id="Calque_1" xmlns="http://www.w3.org/2000/svg" x="0" y="0" viewBox="0 0 287.7 119.5" style="enable-background:new 0 0 287.7 119.5" xml:space="preserve"><style>.st0{fill:#1d1d1b}</style><path class="st0" d="m178.8 41.3 9.5-27.6 9.3 27.6h-18.8zM76.2 29.2h-5.1V2.7h4.3C82.9 2.7 88 7.6 88 16.6c0 5-3.9 12.6-11.8 12.6M18.5 41.3 28 13.6l9.3 27.6H18.5zM287.6 2.8V.5h-32v2.3h5v43.6L230.8.5h-13.9v2.3h5v58.5h-8.6L191.6-2.3l-22.3 63.5H161V2.8h5V.5h-13.1l-16.5 47.9L119 .5h-12.9v2.3h5v58.5h-9.9c-2.8 0-5.2-2.5-5.2-6.7v-9.2c0-7.1-2.3-13-9.4-15 6.2-1.8 10.5-7.7 10.5-14 0-9-6.7-15.8-19.6-15.8H58v2.3h5v58.5H53L31.3-2.3 9 61.2H4.6v2.3h12.5v-2.3h-5.5l6.2-17.7h20.3L44 61.2h-7.6v2.3h42.4v-2.3h-7.7V31.4h5.2c7.5 0 11.3 3.1 11.3 10.4v5.4c0 12.9 8.5 16.3 13.1 16.3h18.1v-2.3h-5.4V9.4l20.4 54.8L153 7.8v53.5h-5v2.3h29.4v-2.3h-5.5l6.2-17.7h20.3l5.9 17.7h-7.6v2.3h32.4v-2.3h-5V6l38.8 59.6V2.8h11.7v58.5h-5v2.3h18v-2.3h-5V2.8h5zM77.3 109.7v3.7h-2.9V86h2.9v11.9c1.6-2.3 3.8-4.3 7.4-4.3 4.7 0 9.3 3.7 9.3 10v.1c0 6.3-4.6 10.1-9.3 10.1-3.6 0-5.9-1.9-7.4-4.1zm13.7-5.9c0-4.7-3.2-7.6-6.8-7.6-3.6 0-7 3-7 7.5v.1c0 4.5 3.4 7.5 7 7.5 3.8-.1 6.8-2.8 6.8-7.5zM101.9 103.8c0-5.7 3.9-10.2 9.3-10.2 5.7 0 9 4.6 9 10.2v.9h-15.4c.4 4.2 3.4 6.6 6.8 6.6 2.7 0 4.5-1.1 6.1-2.7l1.8 1.6c-2 2.2-4.3 3.7-8 3.7-5.3 0-9.6-4.1-9.6-10.1zm15.4-1.2c-.3-3.5-2.3-6.6-6.2-6.6-3.4 0-5.9 2.8-6.3 6.6h12.5zM127.5 107.8c0-4.2 3.4-6.3 8.3-6.3 2.5 0 4.2.3 6 .8v-.7c0-3.5-2.2-5.3-5.8-5.3-2.3 0-4.1.6-5.9 1.4l-.8-2.3c2.2-1 4.2-1.6 7-1.6 2.7 0 4.8.7 6.3 2.2 1.3 1.3 2 3.2 2 5.7v11.9h-2.8v-2.9c-1.3 1.8-3.6 3.3-7 3.3-3.6-.2-7.3-2.3-7.3-6.2zm14.3-1.5v-1.9c-1.4-.4-3.3-.8-5.7-.8-3.7 0-5.7 1.6-5.7 4v.1c0 2.4 2.2 3.8 4.9 3.8 3.6 0 6.5-2.2 6.5-5.2zM154.1 106V94h2.9v11.4c0 3.6 2 5.8 5.3 5.8s5.8-2.4 5.8-6.1V94h2.8v19.4h-2.8V110c-1.3 2.1-3.3 3.8-6.7 3.8-4.5 0-7.3-3.1-7.3-7.8zM182.3 108.3V96.6h-2.7V94h2.7v-5.8h2.9V94h6.2v2.5h-6.2v11.3c0 2.3 1.3 3.2 3.3 3.2 1 0 1.8-.2 2.8-.7v2.5c-1 .5-2.1.8-3.5.8-3.1.1-5.5-1.4-5.5-5.3zM214.7 94h3.1l-8.2 20c-1.7 4-3.5 5.5-6.5 5.5-1.6 0-2.8-.3-4.1-1l1-2.3c.9.5 1.8.7 3 .7 1.7 0 2.8-.9 4-3.7L198.2 94h3.2l7 16.2 6.3-16.2z"></path></svg>