<svg xmlns="http://www.w3.org/2000/svg" viewBox="0 0 468.3 60" style="enable-background:new 0 0 468.3 60" xml:space="preserve"><path d="M461.8 56.5 443 1.3l-19.5 55.2h-4.1v2H430v-2h-4.3l5.4-15.3h17.6l5.2 15.3h-6.3v2h19v-2h-4.8zm-30-17.3 8.3-24.1 8 24.1h-16.3zM263.2 58.5h2.3l21.6-54.8h-2.3zM220.9 5.7h4.3v37.9l-26-39.9h-12.1v2h4.3v50.8H184L165.3 1.3l-19.5 55.2h-7.1V5.7h4.3v-2h-11.4l-14.4 41.7-15.1-41.7H90.9v2h4.3v50.8h-8.6c-2.4-.1-4.5-2.2-4.5-5.8v-8c0-6.1-2-11.3-8.2-13 5.4-1.6 9.1-6.8 9.1-12.3 0-7.7-5.8-13.7-17.1-13.7H49v2h4.4v50.8h-8.6L26 1.3 6.5 56.5H2.4v2H13v-2H8.7l5.4-15.3h17.6L37 56.5h-6.3v2h36.5v-2h-6.6V30.7H65c6.5 0 9.8 2.6 9.8 9v4.7c0 11.1 7.4 14.1 11.4 14.1h15.3v-2h-4.3v-45l17.7 47.6L131.7 10v46.5h-4.3v2h25v-2h-4.3l5.4-15.3h17.6l5.2 15.3H170v2h27.8v-2h-4.3v-48l33.7 51.8V5.7h10.4v50.8h-4.3v2H249v-2h-4.3V5.7h4.3v-2h-28.1v2zm-206 33.5 8.3-24 8 24H14.9zM65 28.7h-4.5v-23h3.7c6.6 0 11 4.2 11 12 0 4.3-3.4 11-10.2 11zm89.2 10.5 8.3-24 8 24h-16.3zM321.1 57.8c-13.5 0-14.3-18.1-14.3-26.7 0-7.3.7-26.7 14.6-26.7 6.1 0 11.6 7.5 12.2 15.6h1.8V2.6h-1.8c-.2 1.6-1.1 2.7-2.9 2.7-2.2 0-4.9-2.9-9.3-2.9-14.9 0-23.7 16.1-23.7 28.8 0 14 10 28.7 23.4 28.7 4.6 0 8-2.5 11.1-2.5 1.6 0 2.5 1.2 2.6 2.3h1.8V40.8h-1.9c.1 10.6-6.3 17-13.6 17zM362.1 1.3l-19.5 55.2h-4.1v2h10.6v-2h-4.3l5.4-15.3h17.6l5.2 15.3h-6.3v2h19v-2h-4.9L362.1 1.3zM351 39.2l8.3-24.1 8 24.1H351zM406.4 26.4c-9.1-2.5-13.2-6.5-13.2-12.2 0-6.1 4.7-9.8 10.1-9.8 7.4 0 13 7.4 13 14.9h1.8V3.5h-1.7c-.2 1.3-.5 2.9-2.2 2.9-1.9 0-4.5-3.9-10.9-3.9-7.4 0-14.4 6.6-14.4 16.1 0 7.9 4.8 13.4 12.4 15.5 10.2 2.8 15.4 5.1 15.4 14 0 4.6-4.1 9.9-12 9.9-2.2 0-4.5-.7-6.4-1.8-5.1-2.9-8.5-9.1-8.5-14.2H388v17.9h1.7c.4-1.8 1.3-3.5 3.1-3.5 3 0 5.8 3.6 12 3.6 12.1 0 16.4-10.3 16.4-17.3-.1-10.4-5.3-13.6-14.8-16.3z"></path></svg>