<svg xmlns="http://www.w3.org/2000/svg" viewBox="0 0 189 57"><path class="st0" d="M37.4 55.9c-.1-.9-1.1-2.2-3-2.2-.8 0-1.6.1-2.4.4-2.4.7-5.3 2-8.5 2-12.8 0-22.4-14-22.4-27.5C1.2 16.3 9.8 1 23.9 1c4.2 0 6.8 2.8 9 2.8 2 0 3-1.2 3.2-2.6h1v16.1h-.9c-.6-7.6-6-15.2-12.3-15.2-14 0-14.6 19.5-14.6 26.5 0 8.1.6 26.4 14.3 26.4 7.4 0 13.8-6.5 13.8-16.6h1V56h-1zM41 54.8v-1.1h4.6V3.3H41V2.2h15.2v1.1h-4.6v50.4h7.5c12.9 0 14.8-7 14.8-14.8h1v15.9H41zM112.9 3.3v34.2c0 10.5-4.5 18.5-15.7 18.5-13.9 0-17.4-8.5-17.4-18.5V3.3h-4.2V2.2H90v1.1h-4.2v34.5c0 11.6 4.8 16.5 13.1 16.5 9.6 0 13-7.8 13-16.5V3.3h-4.2V2.2h9.6v1.1h-4.4zM137.2 54.8h-18.4v-1.1h4.2V3.3h-4.2V2.2h14.8c8.8 0 16.8 3.7 16.8 12.5 0 6.2-6.1 11.5-12 12.1 8.6.6 15.8 5.8 15.8 14 0 7.1-5.7 14-17 14zm-4.6-51.5h-3.5v22.9h5.9c4.9 0 8.8-2.7 8.8-11.3 0-8.2-4-11.6-11.2-11.6zm1.7 24h-5.2v26.4h6.2c6.8 0 12-2.9 12-12.8 0-11.2-5.8-13.6-13-13.6zM172.5 56.1c-2.7 0-4.8-.7-6.6-1.6-1.4-.6-2.9-1.9-5.3-1.9-1.9 0-2.9 1.9-3.2 3.3h-.9V39.2h1c0 4.4 2.4 9.3 6.6 12.7 2.3 1.9 5.2 3 8.4 3 7.9 0 12.1-5.3 12.1-10.1 0-9-5.3-11.3-15.3-14-7.3-2-11.9-7.2-11.9-14.7 0-9 6.7-15.2 13.6-15.2 6.2 0 8.5 3.9 10.7 3.9 2 0 2.3-2 2.4-2.8h.9v14.7h-.9c0-7-5.6-14.6-13.1-14.6-5.4 0-10.2 3.8-10.2 9.9 0 5.9 4.3 9.9 13.2 12.4 9.2 2.6 14 5.6 14 15.2 0 6.8-4 16.5-15.5 16.5z"></path></svg>