<svg xmlns="http://www.w3.org/2000/svg" xml:space="preserve" viewBox="0 0 138 55.4"><path d="M28.8 49.4h-4.5v5.7h-1V43.7h1v4.9h4.5v-4.9h1v11.4h-1zM34.2 46.5c1.9 0 2.9 1.5 2.9 4.4 0 3-1.1 4.4-2.9 4.4-1.9 0-2.9-1.5-2.9-4.4-.1-3 1-4.4 2.9-4.4zm0 8c1.1 0 1.9-.9 1.9-3.6s-.8-3.6-1.9-3.6c-1.1 0-1.9.9-1.9 3.6s.8 3.6 1.9 3.6zM38.9 47.4h-1.2v-.8h1.2v-2.4h1v2.4h1.5v.8h-1.5v6.1c0 .7.3.9.9.9.2 0 .4 0 .6-.1v.8c-.1.1-.4.1-.7.1-1.3 0-1.8-.4-1.8-1.5zM47.7 52.3c-.1 1.8-1.1 3-2.7 3-1.8 0-2.8-1.2-2.8-4.4 0-2.9 1.1-4.4 2.9-4.4 1.9 0 2.7 1.3 2.7 4.1v.4h-4.6v.4c0 2.4.9 3.2 1.8 3.2 1 0 1.6-.7 1.8-2.2h.9zm-1-2.2c0-2.1-.6-2.9-1.8-2.9-1.2 0-1.8.8-1.8 2.9zM49.3 43.7h1v11.4h-1zM53.5 50.9c-1.2-.5-1.6-1.2-1.6-2 0-1.7 1.1-2.4 2.5-2.4 1.6 0 2.3.8 2.3 2.4v.2h-1v-.2c0-1.1-.5-1.6-1.4-1.6-1.1 0-1.6.6-1.6 1.4 0 .6.2 1.1 1.2 1.4l1.4.5c1.2.4 1.6 1.2 1.6 2.2 0 1.5-.8 2.5-2.6 2.5-1.7 0-2.6-.7-2.6-2.6v-.3h1v.2c0 1.2.5 1.9 1.6 1.9 1 0 1.7-.6 1.7-1.5 0-.8-.3-1.2-1.2-1.6zM67.9 53.8c-.6 1-1.6 1.6-3 1.6-2 0-3.2-1.3-3.2-3 0-1.2.6-2.1 1.6-2.9l.9-.7c-.8-1.1-1.3-1.9-1.3-2.8 0-1.4 1.1-2.1 2.3-2.1 1.3 0 2.2.8 2.2 2.1 0 .9-.4 1.8-2 2.9l2.5 3.5c.3-.7.4-1.5.4-2.2h1c0 1-.3 2-.8 3l1.5 2.1h-1.1zm-3.2-4.5c-1.6 1.1-2 2-2 2.9 0 1.4 1.1 2.3 2.3 2.3.9 0 2-.6 2.4-1.4zm.3-1.2c1.3-1 1.5-1.7 1.5-2.3 0-.7-.6-1.3-1.3-1.3-.8 0-1.3.5-1.3 1.3 0 .6.4 1.5 1.1 2.3zM74.6 43.7H78c1.9 0 3 1.1 3 2.9 0 1.4-.5 2.6-2.1 2.9 1.4.1 1.9.9 2 2.7v1.2c0 .6.1 1.2.5 1.7h-1.2c-.2-.4-.3-1-.3-1.6v-1c-.1-2-.4-2.7-2.3-2.7h-1.9V55h-1V43.7Zm1.1 5.4h1.8c1.6 0 2.6-.7 2.6-2.2 0-1.4-.6-2.2-2.4-2.2h-1.9v4.4zM87.8 52.3c-.1 1.8-1.1 3-2.7 3-1.8 0-2.8-1.2-2.8-4.4 0-2.9 1.1-4.4 2.9-4.4 1.9 0 2.7 1.3 2.7 4.1v.4h-4.6v.4c0 2.4.9 3.2 1.8 3.2 1 0 1.6-.7 1.8-2.2h.9zm-1-2.2c0-2.1-.6-2.9-1.8-2.9-1.2 0-1.8.8-1.8 2.9zM90.6 50.9c-1.2-.5-1.6-1.2-1.6-2 0-1.7 1.1-2.4 2.5-2.4 1.6 0 2.3.8 2.3 2.4v.2h-1v-.2c0-1.1-.5-1.6-1.4-1.6-1.1 0-1.6.6-1.6 1.4 0 .6.2 1.1 1.2 1.4l1.4.5c1.2.4 1.6 1.2 1.6 2.2 0 1.5-.8 2.5-2.6 2.5-1.7 0-2.6-.7-2.6-2.6v-.3h1v.2c0 1.2.5 1.9 1.6 1.9 1 0 1.7-.6 1.7-1.5 0-.8-.3-1.2-1.2-1.6zM97.9 46.5c1.9 0 2.9 1.5 2.9 4.4 0 3-1.1 4.4-2.9 4.4-1.9 0-2.9-1.5-2.9-4.4 0-3 1-4.4 2.9-4.4zm0 8c1.1 0 1.9-.9 1.9-3.6s-.8-3.6-1.9-3.6c-1.1 0-1.9.9-1.9 3.6s.8 3.6 1.9 3.6zM102.2 46.6h1v1.3c.4-.9 1.2-1.5 2.1-1.5h.3v1h-.5c-1.1 0-2 .8-2 2.4v5.3h-1v-8.5zM107.1 47.4h-1.2v-.8h1.2v-2.4h1v2.4h1.5v.8h-1.5v6.1c0 .7.3.9.9.9.2 0 .4 0 .6-.1v.8c-.1.1-.4.1-.7.1-1.3 0-1.8-.4-1.8-1.5zM112 50.9c-1.2-.5-1.6-1.2-1.6-2 0-1.7 1.1-2.4 2.5-2.4 1.6 0 2.3.8 2.3 2.4v.2h-1v-.2c0-1.1-.5-1.6-1.4-1.6-1.1 0-1.6.6-1.6 1.4 0 .6.2 1.1 1.2 1.4l1.4.5c1.2.4 1.6 1.2 1.6 2.2 0 1.5-.8 2.5-2.6 2.5-1.7 0-2.6-.7-2.6-2.6v-.3h1v.2c0 1.2.5 1.9 1.6 1.9 1 0 1.7-.6 1.7-1.5 0-.8-.3-1.2-1.2-1.6zM137.9 2.5V1.4h-15.6v1.1h2.4v21.3L110.2 1.4h-6.8v1.1h2.4V31h-4.2L91.1 0 80.2 31h-4V2.5h2.4V1.4h-6.4l-8.1 23.4-8.5-23.4h-6.1v1.1h2.4V31h-4.8c-1.4 0-2.5-1.2-2.5-3.3v-4.5c0-3.4-1.1-6.3-4.6-7.3 3-.9 5.1-3.8 5.1-6.8 0-4.4-3.3-7.7-9.6-7.7H26v1.1h2.4V31h-4.9L13 0 2.1 31H0v1.1h6.1V31H3.4l3-8.6h9.9l2.9 8.6h-3.7v1.1h20.6V31h-3.7V16.5h2.5c3.7 0 5.5 1.5 5.5 5.1v2.6c0 6.3 4.1 7.9 6.4 7.9h8.8V31H53V5.8l9.9 26.7L72.3 5v26h-2.4v1.1h14.3V31h-2.7l3-8.6h9.9l2.9 8.6h-3.7v1.1h15.8V31H107V4.1l18.9 29V2.5h5.7V31h-2.4v1.1h8.8V31h-2.5V2.5zM6.8 21.3l4.6-13.5 4.5 13.5zm28.1-5.9h-2.5V2.5h2.1c3.7 0 6.2 2.4 6.2 6.8-.1 2.4-2 6.1-5.8 6.1zm50 5.9 4.6-13.5L94 21.3z"></path></svg>