<svg viewBox="0 0 120 60" xmlns="http://www.w3.org/2000/svg"><g fill="#1A171B" fill-rule="nonzero"><path d="M119.8 48.99h-5.134v.222h.852v8.03l-5.224-8.254h-2.245v.221h.847v10.156h-1.411l-3.638-10.85-3.765 10.85h-1.338V49.212h.785v-.221h-2.025l-2.883 8.47-3.026-8.47H89.53v.22h.85v10.156H88.82c-.536 0-.976-.47-.976-1.228v-1.574c0-1.301-.457-2.341-1.906-2.56a2.454 2.454 0 0 0 2.092-2.403c0-1.475-1.095-2.611-3.269-2.611h-3.237v.22h.844v10.156h-1.62l-3.638-10.85-3.765 10.85h-.706v.235h1.948v-.235h-.964l1.122-3.294h3.56l1.087 3.294h-1.334v.235h6.845v-.235H83.59v-5.25h.96c1.317 0 2.011.537 2.011 1.852v.925c0 2.177 1.412 2.704 2.153 2.704h2.814v-.236h-.922v-9.39l3.555 9.732 3.365-10.057v9.713h-.847v.235h4.645v-.235h-.974l1.124-3.294h3.558l1.087 3.294h-1.332v.235h5.177v-.235h-.852v-9.795l6.619 10.395V49.212h1.993v10.155h-.85v.235h2.92v-.235h-.847V49.212h.847l.005-.221Zm-44.976 6.864 1.734-5.075 1.675 5.075h-3.41Zm8.769-1.972v-4.67h.812c1.34 0 2.24.873 2.24 2.45 0 .87-.68 2.225-2.092 2.225l-.96-.005Zm17.955 1.967 1.746-5.068 1.675 5.075-3.42-.007ZM4.63 49.212c1.803 0 2.25 1.042 2.25 2.532h.21V48.99H0v.22h.925V59.37H0v.236h7.09v-3.06h-.21c0 1.577-.384 2.824-2.984 2.824h-1.75v-5.016h.753c1.176 0 1.72.602 1.72 1.626h.207v-3.475h-.207c0 1.037-.555 1.623-1.72 1.623h-.753v-4.915H4.63ZM50.838 48.734c-2.774 0-4.596 3.087-4.596 5.565 0 2.703 1.972 5.548 4.596 5.548 2.623 0 4.593-2.67 4.593-5.548 0-2.475-1.97-5.565-4.593-5.565m0 10.904c-2.824 0-2.958-3.683-2.958-5.34 0-1.656.188-5.338 2.958-5.338s2.971 3.694 2.971 5.339c0 1.645-.16 5.339-2.971 5.339M29.939 48.734c-2.774 0-4.593 3.087-4.593 5.565 0 2.703 1.972 5.548 4.593 5.548s4.595-2.67 4.595-5.548c0-2.475-1.972-5.565-4.595-5.565m0 10.904c-2.824 0-2.955-3.683-2.955-5.34 0-1.656.188-5.338 2.955-5.338s2.972 3.694 2.972 5.339c0 1.645-.158 5.339-2.972 5.339M42.932 49.212h.85v10.155h-1.556c-.537 0-.974-.47-.974-1.228v-1.574c0-1.301-.457-2.341-1.908-2.56a2.454 2.454 0 0 0 2.094-2.403c0-1.475-1.094-2.611-3.27-2.611h-3.236v.22h.844v10.156h-.844v.235h3.379v-.235H37v-5.25h.96c1.318 0 2.012.52 2.012 1.852v.925c0 2.21 1.412 2.704 2.153 2.704h3.73v-.236h-.85v-10.15h.85v-.221h-2.919l-.004.22ZM37 53.882v-4.67h.812c1.343 0 2.242.873 2.242 2.45 0 .87-.68 2.225-2.092 2.225L37 53.882ZM21.07 48.99H15.66l-2.883 8.471-3.023-8.47H7.696v.22h.85V59.37h-.85v.236h1.996v-.236h-.925v-9.397l3.555 9.732 3.372-10.057v9.713h-.85v.235h6.158v-.235h-.847V55.2h.916c2.423 0 3.597-1.348 3.597-3.078 0-1.663-1.033-3.131-3.597-3.131m-2.153 10.378h-2.003V49.212h2.003v10.157Zm1.854-4.393h-.617v-5.764h.62c1.533 0 2.493.793 2.493 2.91 0 1.916-.739 2.854-2.494 2.854M66.386 50.27c.068-.258.266-.251.567-.251h.743c-.063-.633-.778-1.028-1.077-1.028h-2.955c-.05 0-.078.037-.1.075-.226.35-.349.759-.352 1.176v.033l3.174-.004ZM59.41 48.995h-5.311c-.013.068-.02.136-.019.205 0 .706.758 1.073.758 1.073h5.647l-1.076-1.278ZM60.97 50.859h-5.311a.953.953 0 0 0-.021.205c0 .705.757 1.072.757 1.072h5.647L60.97 50.86ZM76.146 48.995h-5.322l-1.071 1.278H75.4s.758-.365.758-1.073c0-.069-.008-.137-.022-.205M69.275 50.859l-1.073 1.277h5.647s.758-.364.758-1.072a1.176 1.176 0 0 0-.021-.205h-5.31ZM58.781 54.588a.995.995 0 0 0-.021.203c0 .705.758 1.075.758 1.075h2.642c.244-.547.78-.906 1.379-.925a.941.941 0 0 1 .47.132c.047.03.1.05.156.059a.172.172 0 0 0 .195-.163v-.016h.146v.91h1.612l.346-.983.018-.047.35 1.03h3.897s.758-.362.758-1.075c0-.068-.007-.136-.021-.202l-12.685.002Z"></path><path d="M63.541 55.104c-.517 0-.765.357-.885.76h1.648c-.135-.523-.471-.76-.772-.76M62.548 56.85c-.004.294.023.588.08.877h1.54v-.47h-.337v-.168h1.11v.167h-.285v.471h.798c.13-.374.294-.838.45-1.278h-3.342c-.011.163-.011.304-.011.4M69.176 57.727s.758-.365.758-1.073c0-.069-.006-.137-.019-.205h-2.884l.437 1.278h1.708ZM61.955 56.45h-1.614c-.013.067-.019.135-.019.204 0 .706.756 1.073.756 1.073h1.04a2.174 2.174 0 0 1-.205-.878c.001-.134.016-.268.045-.4M63.473 58.588c.22.005.428-.1.555-.28h-1.15c.14.187.364.292.597.28"></path><path d="M68.13 58.504v.164h-1.38v-.164h.431l-.063-.189H65.44l-.068.189h.31v.164h-.74v-.164h.256l.066-.189h-.591v.353h-.165v-.016c0-.123-.073-.203-.153-.203a.504.504 0 0 0-.308.123.87.87 0 0 1-.562.183 1.332 1.332 0 0 1-.965-.44h-.607c-.013.068-.02.136-.021.205 0 .706.757 1.073.757 1.073h4.967s.756-.365.756-1.073c0-.069-.007-.137-.02-.205h-.677l.064.189h.4M66.165 50.856h-2.953l-.052 1.276h3.367zM67.715 52.722l-.508.61-.513-.61h-3.56l-.092.607-.515-.607H57.22a1.002 1.002 0 0 0-.021.203c0 .706.757 1.073.757 1.073H72.29s.758-.365.758-1.073c0-.068-.007-.136-.021-.203h-5.31ZM66.494 56.45h-.41l-.275.806h.953zM65.75 57.419l-.105.308h1.275l-.101-.308zM5.346 38.927h26.52c1.52 0 2.614.788 2.614 2.487s-1.094 2.492-2.614 2.492H2.854C.85 43.908 0 42.63 0 40.993V3.58C0 1.934.85.668 2.854.668h29.012c1.52 0 2.614.79 2.614 2.49 0 1.698-1.094 2.49-2.614 2.49H5.346v14.147h25.37c1.52 0 2.609.789 2.609 2.49 0 1.7-1.09 2.491-2.61 2.491H5.345v14.151ZM50.85 24.795l7.663-18.371s.099-.189.235-.189c.137 0 .236.189.236.189l7.788 18.371H50.849Zm27.863 14.5-16.15-36c-.758-1.79-1.88-3.088-3.815-3.06h-.132c-1.858.029-2.952 1.309-3.694 3.06l-16.15 36c-.221.529-.868 1.881-.923 2.609-.103 1.392.986 2.327 2.38 2.428 1.453.106 2.244-.687 2.75-1.807l5.882-13.247v-.024l19.866.024 5.762 13.247c.511 1.12 1.3 1.913 2.753 1.807 1.393-.101 2.483-1.033 2.38-2.428-.055-.728-.707-2.078-.923-2.61M119.555.264h-38.07l-1.756 3.92h38.092zM116.666 6.793H78.56l-1.826 4.075h38.132zM113.71 13.478H99.52l-1.767 4.075h14.155zM110.755 20.162H96.621l-1.765 4.076h14.097zM107.798 26.847H93.725l-1.765 4.075h14.035zM104.84 33.532H90.826l-1.765 4.075h13.977zM101.885 40.216H87.929l-1.764 4.073h13.917z"></path></g></svg>